PathFileType	4	(X/Y/Z)	S1_nor_slow_left.trc
DataRate	CameraRate	NumFrames	NumMarkers	Units	OrigDataRate	OrigDataStartFrame	OrigNumFrames
250.00	250.00	6	18	mm	250.00	4622	12323
Frame#	Time	c7	r_should	l_should	clavicle	r_upa	r_elb_l	r_elb_m	r_low	r_wri_l	r_wri_m	r_met	l_upa	l_elb_l	l_elb_m	l_low	l_wri_l	l_wri_m	l_met
	X1	Y1	Z1	X2	Y2	Z2	X3	Y3	Z3	X4	Y4	Z4	X5	Y5	Z5	X6	Y6	Z6	X7	Y7	Z7	X8	Y8	Z8	X9	Y9	Z9	X10	Y10	Z10	X11	Y11	Z11	X12	Y12	Z12	X13	Y13	Z13	X14	Y14	Z14	X15	Y15	Z15	X16	Y16	Z16	X17	Y17	Z17	X18	Y18	Z18
4622	18.48400	834.89337	1419.30127	58.23437	899.59460	1362.62122	247.58601	885.61652	1338.90796	-126.37077	969.75830	1295.23340	58.51608	876.23883	1169.55139	328.18793	891.20984	1071.81958	347.77432	818.50830	1043.69434	282.91766	872.73822	940.55688	369.74011	969.63495	873.53748	338.12161	904.89807	843.77344	355.73096	1020.87543	800.24847	356.70435	931.91907	1125.57788	-136.39799	945.57568	1080.31494	-140.64359	942.01575	1037.29614	-35.39071	1044.53406	1121.06409	-85.03261	1051.00073	1222.96155	-110.57118	1082.83093	1206.22083	-47.38718	1102.01172	1280.46716	-122.50806
4623	18.48800	834.85315	1419.30530	58.26974	899.57263	1362.63025	247.62720	885.54065	1338.89429	-126.33807	969.71002	1295.24097	58.52064	876.19543	1169.55884	328.24152	891.16040	1071.82959	347.82236	818.46515	1043.70496	282.98059	872.66077	940.57672	369.81250	969.53943	873.52997	338.20706	904.80554	843.76898	355.81781	1020.75946	800.22882	356.78873	931.67426	1125.49927	-136.40077	945.29834	1080.22961	-140.68715	941.79382	1037.18518	-35.43092	1044.41479	1120.72607	-85.11768	1051.15247	1222.62146	-110.64732	1082.93579	1205.79248	-47.45681	1102.33838	1279.98865	-122.57582
4624	18.49200	834.80975	1419.30530	58.30928	899.54144	1362.64502	247.65994	885.46826	1338.88403	-126.31598	969.66718	1295.24097	58.53827	876.15717	1169.57812	328.29175	891.12518	1071.84094	347.87238	818.42566	1043.72205	283.04227	872.58990	940.59174	369.87958	969.44653	873.51758	338.28311	904.71423	843.76587	355.90494	1020.65240	800.20575	356.87405	931.43030	1125.42920	-136.40651	945.00757	1080.15564	-140.74046	941.58643	1037.10486	-35.45587	1044.29480	1120.39429	-85.20960	1051.30676	1222.29309	-110.73108	1083.03992	1205.37573	-47.52728	1102.65869	1279.49097	-122.67321
4625	18.49600	834.76495	1419.30774	58.34085	899.51971	1362.66638	247.69252	885.39264	1338.87939	-126.29540	969.62366	1295.23328	58.54126	876.12524	1169.61035	328.34512	891.08466	1071.85461	347.92542	818.38208	1043.74573	283.09885	872.52350	940.60919	369.95200	969.36200	873.50787	338.35672	904.62848	843.76886	355.99240	1020.54645	800.18445	356.94830	931.18286	1125.37000	-136.41653	944.72144	1080.06763	-140.77394	941.32947	1037.02271	-35.51573	1044.16821	1120.07227	-85.30268	1051.46790	1221.96265	-110.81960	1083.13708	1204.95691	-47.61864	1102.99243	1278.99365	-122.75849
4626	18.50000	834.72400	1419.30945	58.38064	899.49939	1362.68323	247.71942	885.31378	1338.87463	-126.26465	969.58508	1295.22742	58.55273	876.09601	1169.63123	328.40497	891.04956	1071.87097	347.97461	818.34332	1043.77295	283.16119	872.45972	940.62970	370.02374	969.28040	873.50616	338.43387	904.54877	843.76978	356.08160	1020.44403	800.16296	357.02322	930.92798	1125.31104	-136.42892	944.42560	1079.98682	-140.80779	941.10980	1036.94336	-35.57130	1044.03943	1119.74915	-85.39666	1051.62878	1221.61011	-110.90427	1083.22693	1204.51416	-47.71646	1103.35059	1278.49915	-122.83763
4627	18.50400	834.68500	1419.31580	58.41789	899.48151	1362.69263	247.74736	885.23315	1338.87402	-126.24012	969.54401	1295.22278	58.56402	876.04883	1169.56274	328.51154	891.02136	1071.88770	348.03027	818.30646	1043.80261	283.23514	872.40222	940.65002	370.09366	969.19965	873.50464	338.50711	904.47302	843.76642	356.17102	1020.34424	800.14716	357.09888	930.67316	1125.25342	-136.44557	944.13629	1079.90430	-140.85091	940.90649	1036.87134	-35.60676	1043.91577	1119.42822	-85.49635	1051.78650	1221.23975	-110.98707	1083.31946	1204.06519	-47.82661	1103.71619	1277.98511	-122.90620
